<svg width="86" height="76" viewBox="0 0 86 76" fill="none" xmlns="http://www.w3.org/2000/svg">
<path d="M85.4071 57.516C85.2161 52.087 83.5251 45.545 80.6451 39.096C74.3151 24.917 64.8601 16.31 58.6561 19.084L55.0501 20.693V12.139C55.0501 5.34399 43.3411 0.218994 27.8141 0.218994C12.2871 0.218994 0.578125 5.34399 0.578125 12.139V27.455C0.578125 27.536 0.589125 27.614 0.602125 27.692C0.590125 27.77 0.578125 27.848 0.578125 27.929C0.578125 28.067 0.591125 28.204 0.600125 28.34C0.589125 28.412 0.578125 28.485 0.578125 28.56V43.876C0.578125 43.957 0.589125 44.035 0.602125 44.113C0.590125 44.191 0.578125 44.269 0.578125 44.35C0.578125 44.523 0.591125 44.694 0.606125 44.864C0.589125 44.953 0.578125 45.045 0.578125 45.139V60.453C0.578125 60.534 0.589125 60.612 0.602125 60.69C0.590125 60.768 0.578125 60.846 0.578125 60.927C0.578125 67.723 12.2871 72.848 27.8141 72.848C37.6551 72.848 46.6271 70.607 51.3681 67.06C55.5991 72.545 60.1511 75.776 63.9621 75.776C64.8331 75.776 65.6661 75.608 66.4461 75.259L80.8631 68.822C84.0011 67.426 85.6151 63.409 85.4071 57.516ZM27.8141 3.21999C42.0971 3.21999 52.0501 7.92099 52.0501 12.14C52.0501 16.36 42.0961 21.062 27.8141 21.062C13.5321 21.062 3.57812 16.36 3.57812 12.14C3.57812 7.92099 13.5311 3.21999 27.8141 3.21999ZM3.57812 27.456V17.75C8.01512 21.566 16.9831 24.062 27.8141 24.062C38.6461 24.062 47.6141 21.566 52.0501 17.75V22.033L44.2341 25.521C41.2291 26.865 39.7071 30.562 39.6511 35.626C36.0331 36.415 31.9841 36.851 27.8131 36.851C13.5301 36.851 3.57713 32.15 3.57713 27.931C3.57713 27.85 3.56612 27.772 3.55312 27.694C3.56612 27.615 3.57812 27.537 3.57812 27.456ZM3.57812 43.878V33.54C8.01512 37.355 16.9831 39.851 27.8141 39.851C31.9941 39.851 36.0911 39.45 39.7831 38.688C40.1231 42.398 41.1181 46.633 42.7681 51.106C38.3361 52.539 33.3181 53.272 27.8141 53.272C13.5311 53.272 3.57812 48.571 3.57812 44.352C3.57812 44.271 3.56713 44.193 3.55413 44.115C3.56613 44.037 3.57812 43.959 3.57812 43.878ZM27.8141 69.851C13.5311 69.851 3.57812 65.149 3.57812 60.93C3.57812 60.849 3.56713 60.771 3.55413 60.693C3.56613 60.615 3.57812 60.537 3.57812 60.456V49.961C8.01512 53.776 16.9831 56.272 27.8141 56.272C33.7061 56.272 39.0941 55.468 43.8701 53.899C44.0591 54.349 44.2551 54.8 44.4571 55.252C46.0201 58.753 47.7771 61.898 49.6251 64.632C45.4891 67.783 36.9721 69.851 27.8141 69.851ZM65.2241 72.523C61.3701 74.243 53.0201 67.071 47.1971 54.029C41.3741 40.987 41.6081 29.981 45.4561 28.261L54.7751 24.102C54.2591 25.845 54.0281 27.956 54.1141 30.394C54.3051 35.824 55.9961 42.366 58.8761 48.816C63.2951 58.713 69.2331 65.878 74.5291 68.37L65.2241 72.523ZM79.6411 66.087C75.7901 67.803 67.4381 60.635 61.6151 47.593C58.8891 41.487 57.2901 35.341 57.1121 30.288C56.9531 25.765 57.9621 22.68 59.8801 21.823C60.2591 21.654 60.6811 21.571 61.1411 21.571C65.3521 21.571 72.6581 28.559 77.9081 40.319C80.6341 46.424 82.2331 52.569 82.4111 57.622C82.5681 62.145 81.5591 65.23 79.6411 66.087Z" fill="white"/>
</svg>
