<svg width="86" height="77" viewBox="0 0 86 77" fill="none" xmlns="http://www.w3.org/2000/svg">
<path d="M82.9573 45.494C81.5463 44.083 79.6703 43.306 77.6743 43.306C77.6603 43.306 77.6463 43.306 77.6323 43.307C77.5623 43.304 71.3043 43.394 68.3263 36.398C67.4753 34.398 67.2033 32.147 67.1183 31.099C68.9303 29.069 69.9193 26.481 69.9193 23.74C69.9193 18.079 65.6483 13.405 60.1593 12.751V1.74902C60.1593 0.920023 59.4873 0.249023 58.6593 0.249023H1.90234C1.07334 0.249023 0.402344 0.920023 0.402344 1.74902V75.098C0.402344 75.926 1.07334 76.598 1.90234 76.598H58.6593C59.4873 76.598 60.1593 75.926 60.1593 75.098V64.122H81.1433C81.9713 64.122 82.6433 63.45 82.6433 62.622V58.101H83.6433C84.4713 58.101 85.1433 57.429 85.1433 56.601V50.776C85.1453 48.781 84.3683 46.906 82.9573 45.494ZM66.9193 23.74C66.9193 25.908 66.0693 27.945 64.5263 29.474C64.2333 29.765 64.0723 30.162 64.0823 30.575C64.0863 30.726 64.1863 34.327 65.5663 37.572C69.2673 46.271 77.1053 46.304 77.6873 46.305C78.8763 46.309 79.9953 46.774 80.8353 47.615C81.6793 48.459 82.1443 49.581 82.1433 50.774V55.1H81.4703C81.3653 55.077 81.2563 55.062 81.1433 55.062C81.0303 55.062 80.9223 55.077 80.8163 55.1H35.5403V50.774C35.5403 48.324 37.5223 46.327 39.9673 46.304C40.8493 46.353 48.1153 46.457 51.9513 37.808C53.2663 34.845 53.5393 30.756 53.5503 30.583C53.5773 30.155 53.4193 29.735 53.1163 29.431C51.6013 27.908 50.7673 25.886 50.7673 23.739C50.7673 19.286 54.3893 15.664 58.8413 15.664C63.2963 15.665 66.9193 19.287 66.9193 23.74ZM57.1593 73.598H3.40234V3.24902H57.1593V12.807C51.8503 13.622 47.7673 18.207 47.7673 23.74C47.7673 26.445 48.7323 29.005 50.4993 31.023C50.3783 32.187 50.0353 34.73 49.2083 36.592C46.0953 43.612 40.3583 43.324 40.1253 43.309C40.0863 43.306 40.0463 43.304 40.0073 43.304C35.8893 43.304 32.5383 46.655 32.5383 50.774V56.6C32.5383 57.428 33.2093 58.1 34.0383 58.1H35.2203L35.2573 62.633C35.2643 63.457 35.9333 64.121 36.7573 64.121H57.1573V73.598H57.1593ZM79.6443 61.122H59.0273C58.9093 61.092 58.7873 61.071 58.6593 61.071C58.5313 61.071 58.4103 61.092 58.2913 61.122H38.2473L38.2223 58.101H79.6443V61.122Z" fill="white"/>
<path d="M28.8542 15.793H9.78125C8.95225 15.793 8.28125 16.464 8.28125 17.293C8.28125 18.122 8.95225 18.793 9.78125 18.793H28.8542C29.6832 18.793 30.3542 18.122 30.3542 17.293C30.3542 16.464 29.6832 15.793 28.8542 15.793Z" fill="white"/>
<path d="M28.8542 23.4771H9.78125C8.95225 23.4771 8.28125 24.1481 8.28125 24.9771C8.28125 25.8061 8.95225 26.4771 9.78125 26.4771H28.8542C29.6832 26.4771 30.3542 25.8061 30.3542 24.9771C30.3542 24.1481 29.6832 23.4771 28.8542 23.4771Z" fill="white"/>
<path d="M28.8542 31.435H9.78125C8.95225 31.435 8.28125 32.106 8.28125 32.935C8.28125 33.764 8.95225 34.435 9.78125 34.435H28.8542C29.6832 34.435 30.3542 33.764 30.3542 32.935C30.3542 32.106 29.6832 31.435 28.8542 31.435Z" fill="white"/>
</svg>
