<svg width="97" height="68" viewBox="0 0 97 68" fill="none" xmlns="http://www.w3.org/2000/svg">
<path d="M96.3565 34.813C95.9935 34.067 95.0955 33.758 94.3525 34.119L83.7415 39.274L76.5105 42.406C75.3945 42.118 72.5435 41.371 69.9825 40.612L68.7265 40.144C68.5425 40.076 68.3535 40.048 68.1685 40.053C67.2805 39.766 66.5085 39.494 65.9885 39.265C63.4945 38.167 59.0385 35.586 57.2425 34.028C55.2135 32.274 49.9275 25.764 49.8745 25.698C49.4255 25.144 48.6485 24.983 48.0165 25.312C46.5625 26.069 41.8465 28.066 39.3495 27.34C38.0315 26.948 35.5925 25.61 34.9025 24.777C34.4425 24.223 34.0505 22.226 34.2575 21.588C34.7965 21.315 36.8405 21.661 37.8415 21.83C39.5545 22.12 41.1745 22.394 42.4255 21.989C44.8615 21.202 49.7735 17.005 50.9575 15.973C52.1325 15.544 57.9295 13.59 61.9725 15.198C64.1055 16.047 66.1795 16.34 68.0295 16.34C72.0305 16.34 74.9815 14.965 75.2005 14.86L89.9365 6.985C90.6665 6.594 90.9425 5.686 90.5525 4.955C90.1615 4.225 89.2535 3.948 88.5225 4.339L73.8525 12.18C73.8015 12.204 68.5835 14.598 63.0815 12.41C58.2895 10.502 52.0725 12.399 50.1875 13.061C48.0965 12.268 42.2185 10.165 39.6065 10.561C37.1685 10.935 30.0685 11.27 27.1925 10.739C25.9785 10.396 16.7565 5.406 8.69746 0.886C7.97346 0.481 7.06046 0.738001 6.65546 1.461C6.25046 2.183 6.50746 3.098 7.22946 3.503C12.5005 6.46 24.9405 13.369 26.5965 13.678C30.1145 14.33 37.6745 13.892 40.0575 13.527C41.2355 13.348 44.4355 14.229 47.2365 15.187C45.1425 16.9 42.6425 18.765 41.5025 19.133C40.9485 19.312 39.5035 19.067 38.3415 18.87C35.9645 18.468 33.5075 18.052 32.0675 19.513C30.4605 21.16 31.4235 25.284 32.5915 26.69C33.7965 28.145 36.8415 29.724 38.5025 30.217C41.7345 31.156 46.2035 29.448 48.2945 28.503C49.8765 30.422 53.5245 34.778 55.2765 36.293C57.4625 38.19 62.3635 40.945 64.7775 42.008C65.7175 42.422 67.3065 42.94 69.0045 43.447L76.0395 46.068C76.4075 46.258 76.6865 46.612 76.8695 47.122C77.1875 48.009 77.1235 49.193 76.7125 50.065C76.2105 51.121 75.0845 51.671 74.0175 51.517C73.8065 51.395 73.5695 51.327 73.3245 51.317L63.7865 46.369C63.0515 45.987 62.1455 46.275 61.7645 47.01C61.3835 47.745 61.6695 48.651 62.4055 49.032L72.0115 54.014C72.0405 54.028 72.0705 54.036 72.0995 54.05C72.1725 54.43 72.1045 54.694 71.9965 55.042C71.9235 55.276 71.8385 55.55 71.7955 55.867C71.1655 57.031 69.7395 57.546 68.5165 57.02L60.4655 53.521C60.4295 53.505 60.3925 53.499 60.3555 53.486C60.3075 53.469 60.2595 53.451 60.2115 53.44C60.1625 53.428 60.1125 53.422 60.0635 53.416C60.0155 53.41 59.9685 53.402 59.9215 53.4C59.8705 53.398 59.8205 53.402 59.7705 53.406C59.7245 53.409 59.6785 53.41 59.6335 53.418C59.5835 53.426 59.5355 53.439 59.4875 53.452C59.4435 53.464 59.3985 53.474 59.3555 53.49C59.3095 53.507 59.2665 53.529 59.2225 53.55C59.1795 53.571 59.1365 53.59 59.0955 53.615C59.0545 53.639 59.0175 53.669 58.9795 53.697C58.9395 53.726 58.9005 53.755 58.8635 53.788C58.8285 53.82 58.7975 53.856 58.7655 53.891C58.7315 53.929 58.6965 53.965 58.6665 54.006C58.6375 54.045 58.6145 54.088 58.5885 54.13C58.5675 54.165 58.5435 54.195 58.5255 54.232C58.5195 54.244 58.5175 54.257 58.5115 54.269C58.5065 54.28 58.4985 54.289 58.4945 54.3C58.4795 54.334 58.4735 54.368 58.4615 54.403C58.4435 54.454 58.4245 54.505 58.4125 54.556C58.4015 54.602 58.3965 54.649 58.3905 54.696C58.3835 54.746 58.3755 54.796 58.3745 54.846C58.3725 54.894 58.3765 54.942 58.3795 54.99C58.3825 55.038 58.3845 55.086 58.3915 55.134C58.3995 55.182 58.4125 55.229 58.4245 55.276C58.4365 55.322 58.4475 55.367 58.4635 55.412C58.4805 55.457 58.5015 55.501 58.5225 55.544C58.5425 55.587 58.5625 55.63 58.5865 55.67C58.6115 55.712 58.6415 55.751 58.6705 55.79C58.6985 55.829 58.7265 55.867 58.7585 55.903C58.7915 55.94 58.8295 55.972 58.8675 56.006C58.9035 56.038 58.9375 56.071 58.9765 56.1C59.0175 56.13 59.0625 56.156 59.1075 56.182C59.1395 56.202 59.1685 56.225 59.2025 56.242L61.3485 57.305C62.6215 57.91 63.1675 59.438 62.5645 60.713C62.2685 61.339 61.7475 61.812 61.0975 62.044C60.4565 62.273 59.7675 62.238 59.1535 61.946L53.1185 59.095L54.8385 56.177C56.4945 53.378 55.5625 49.748 52.7625 48.086L52.7605 48.085C51.5105 47.347 50.0975 47.122 48.7675 47.343C49.0405 44.67 47.8215 41.972 45.4085 40.537C45.4065 40.535 45.4035 40.534 45.4005 40.532C43.0035 39.124 40.0975 39.324 37.8985 40.788C37.4615 39.488 36.5805 38.33 35.3095 37.575C32.4885 35.919 28.8485 36.852 27.1955 39.653L23.1735 46.46L13.3295 39.418C13.2945 39.393 13.2555 39.376 13.2185 39.355C13.1825 39.334 13.1505 39.308 13.1125 39.29L2.47146 34.122C1.72746 33.761 0.828462 34.07 0.467462 34.816C0.105462 35.561 0.416462 36.459 1.16146 36.821L11.6885 41.935L21.7845 49.158C21.0115 51.709 22.0445 54.561 24.4455 55.977C25.3885 56.532 26.4235 56.796 27.4455 56.796C27.7745 56.796 28.1005 56.759 28.4235 56.705C28.1395 59.401 29.3695 62.123 31.8065 63.565C32.8835 64.199 34.0845 64.523 35.3085 64.523C35.9315 64.523 36.5605 64.439 37.1815 64.269C37.9455 64.06 38.6565 63.725 39.2995 63.292C39.7415 64.584 40.6255 65.733 41.8925 66.484C42.8335 67.038 43.8675 67.302 44.8885 67.302C46.9125 67.302 48.8885 66.266 49.9935 64.404L51.5905 61.693L57.8695 64.66C58.6225 65.018 59.4295 65.199 60.2395 65.199C60.8675 65.199 61.4975 65.091 62.1075 64.873C63.5135 64.372 64.6405 63.351 65.2785 61.998C65.7205 61.063 65.8715 60.067 65.7815 59.106L67.3275 59.778C68.0385 60.085 68.7815 60.229 69.5125 60.229C71.6685 60.229 73.7295 58.97 74.6445 56.87C74.7275 56.681 74.7695 56.484 74.7695 56.278C74.7735 56.223 74.8255 56.059 74.8625 55.939C74.9725 55.584 75.1205 55.109 75.1395 54.494C76.9395 54.243 78.5875 53.119 79.4255 51.354C80.1795 49.758 80.2825 47.75 79.6955 46.113C79.4955 45.557 79.2145 45.076 78.8825 44.651L84.9635 42.017C84.9745 42.012 84.9835 42.005 84.9945 41.999C85.0035 41.995 85.0135 41.994 85.0225 41.989L95.6635 36.82C96.4075 36.455 96.7185 35.558 96.3565 34.813ZM25.9685 53.389C24.5785 52.57 24.1105 50.777 24.9245 49.395L29.7785 41.178C30.3205 40.261 31.2955 39.752 32.2965 39.752C32.8035 39.752 33.3175 39.883 33.7845 40.157C35.1655 40.978 35.6275 42.768 34.8135 44.147L29.9615 52.365C29.1455 53.747 27.3525 54.205 25.9685 53.389ZM36.3895 61.372C35.3345 61.66 34.2485 61.519 33.3295 60.978C31.4065 59.84 30.7965 57.288 31.9675 55.291L38.2515 44.665C39.0395 43.324 40.4425 42.572 41.8675 42.572C42.5555 42.572 43.2475 42.747 43.8775 43.116C45.7885 44.255 46.3875 46.798 45.2125 48.785L38.9325 59.41C38.3605 60.383 37.4575 61.08 36.3895 61.372ZM47.4105 62.874C46.5925 64.253 44.7985 64.711 43.4175 63.897C42.0255 63.073 41.5575 61.28 42.3755 59.899L47.2255 51.682C47.7685 50.766 48.7415 50.258 49.7415 50.258C50.2505 50.258 50.7655 50.39 51.2355 50.667C52.6135 51.487 53.0735 53.273 52.2575 54.652L50.2225 58.106C49.8005 58.21 49.4255 58.49 49.2255 58.914C49.0675 59.249 49.0505 59.611 49.1405 59.943L47.4105 62.874Z" fill="white"/>
</svg>
