<svg width="54" height="90" viewBox="0 0 54 90" fill="none" xmlns="http://www.w3.org/2000/svg">
<path d="M34.588 65.112L49.581 41.004C49.63 40.926 49.671 40.844 49.703 40.759C52.292 36.537 53.659 31.714 53.659 26.79C53.659 12.018 41.641 0 26.869 0C12.097 0 0.0779991 12.018 0.0779991 26.79C0.0779991 31.715 1.447 36.54 4.038 40.765C4.068 40.839 4.103 40.911 4.145 40.981L18.6 65.172C7.379 66.758 0 71.372 0 76.969C0 83.904 11.785 89.335 26.829 89.335C41.873 89.335 53.658 83.903 53.658 76.969C53.659 71.346 45.936 66.629 34.588 65.112ZM6.731 39.414C4.341 35.61 3.078 31.245 3.078 26.79C3.078 13.672 13.75 3 26.869 3C39.987 3 50.659 13.672 50.659 26.79C50.659 31.247 49.396 35.612 47.007 39.414C46.957 39.494 46.916 39.577 46.883 39.663L31.043 65.13C30.805 65.495 30.758 65.578 30.467 66.056L26.467 72.488L6.865 39.684C6.83 39.591 6.785 39.5 6.731 39.414ZM26.83 86.335C12.787 86.335 3.001 81.398 3.001 76.969C3.001 72.949 10.371 69.161 20.284 67.988L25.154 76.139C25.423 76.588 25.905 76.865 26.428 76.869C26.432 76.869 26.437 76.869 26.441 76.869C26.959 76.869 27.441 76.601 27.715 76.161L32.835 67.929C42.906 69.02 50.658 72.904 50.658 76.969C50.659 81.399 40.873 86.335 26.83 86.335Z" fill="white"/>
<path d="M36.571 26.7901C36.571 21.4191 32.201 17.0491 26.83 17.0491C21.459 17.0491 17.089 21.4191 17.089 26.7901C17.089 32.1611 21.459 36.5311 26.83 36.5311C32.201 36.5311 36.571 32.1611 36.571 26.7901ZM20.089 26.7901C20.089 23.0731 23.113 20.0491 26.83 20.0491C30.547 20.0491 33.571 23.0731 33.571 26.7901C33.571 30.5071 30.548 33.5311 26.83 33.5311C23.112 33.5311 20.089 30.5071 20.089 26.7901Z" fill="white"/>
</svg>
