<svg width="369" height="104" viewBox="0 0 369 104" fill="none" xmlns="http://www.w3.org/2000/svg">
<path d="M78.1944 52.276L79.5984 54.184C78.7704 54.94 77.8704 55.66 76.8624 56.272C75.1344 57.316 72.6504 58.36 69.6624 58.36C62.7144 58.36 57.8904 53.104 57.8904 46.66C57.8904 38.632 64.8384 32.44 72.2904 32.44C79.3824 32.476 82.2624 37.912 82.2624 37.876L80.1024 39.424C79.6344 38.596 79.0224 37.84 78.2664 37.192C76.9704 36.076 74.9184 34.96 72.0024 34.96C66.0984 34.96 60.5904 40.108 60.5904 46.66C60.5904 51.844 64.4064 55.84 69.9144 55.84C72.3984 55.84 74.4864 54.976 75.9264 54.076C76.7544 53.536 77.5104 52.96 78.1944 52.276ZM87.171 46.66C87.171 51.736 91.023 55.84 96.531 55.84C102.687 55.84 108.051 50.98 108.051 44.14C108.051 39.064 104.127 34.96 98.691 34.96C92.535 34.96 87.171 39.82 87.171 46.66ZM84.471 46.66C84.471 38.56 91.131 32.44 98.871 32.44C105.927 32.44 110.751 37.588 110.751 44.14C110.751 52.24 104.091 58.36 96.351 58.36C89.295 58.36 84.471 53.212 84.471 46.66ZM109.142 57.82L109.682 55.12C109.862 55.228 110.078 55.3 110.33 55.408C110.798 55.588 111.302 55.66 111.842 55.66C114.326 55.66 116.702 53.68 119.402 41.08L121.13 32.8H137.33L132.002 58H129.302L134.09 35.32H123.29L122.102 41.08C119.042 55.66 115.838 58.36 111.662 58.36C110.834 58.36 110.258 58.252 109.826 58.108C109.574 58 109.322 57.928 109.142 57.82ZM139.575 58L144.903 32.8H147.603L143.319 52.96L163.083 32.8H165.423L160.095 58H157.395L161.679 37.84L141.915 58H139.575ZM163.129 63.4L164.749 55.48H166.189C167.233 54.616 168.205 53.5 169.177 52.096C170.797 49.684 172.741 45.976 173.929 40.36L175.513 32.8H190.993L186.169 55.48H189.229L187.573 63.4H184.873L186.025 58H166.945L165.793 63.4H163.129ZM169.249 55.48H183.469L187.753 35.32H177.673L176.557 40.72C175.441 46.192 173.605 49.828 172.057 52.168C171.157 53.536 170.221 54.652 169.249 55.48ZM190.523 58L206.291 32.8H208.811L213.923 58H211.187L209.783 50.98H197.903L193.547 58H190.523ZM199.523 48.46H209.243L206.903 36.58L199.523 48.46ZM223.299 46.12H230.859C234.135 46.12 236.871 43.456 236.871 40C236.871 37.12 234.531 35.32 231.975 35.32H225.567L223.299 46.12ZM218.079 58L223.407 32.8H232.335C236.187 32.8 239.571 35.68 239.571 40C239.571 44.824 235.575 48.64 230.571 48.64H222.759L220.779 58H218.079ZM241.844 58L247.172 32.8H249.872L247.496 43.96H261.536L263.912 32.8H266.612L261.284 58H258.584L261.032 46.48H246.992L244.544 58H241.844ZM272.444 46.66C272.444 51.736 276.296 55.84 281.804 55.84C287.96 55.84 293.324 50.98 293.324 44.14C293.324 39.064 289.4 34.96 283.964 34.96C277.808 34.96 272.444 39.82 272.444 46.66ZM269.744 46.66C269.744 38.56 276.404 32.44 284.144 32.44C291.2 32.44 296.024 37.588 296.024 44.14C296.024 52.24 289.364 58.36 281.624 58.36C274.568 58.36 269.744 53.212 269.744 46.66ZM320.175 52.276L321.579 54.184C320.751 54.94 319.851 55.66 318.843 56.272C317.115 57.316 314.631 58.36 311.643 58.36C304.695 58.36 299.871 53.104 299.871 46.66C299.871 38.632 306.819 32.44 314.271 32.44C321.363 32.476 324.243 37.912 324.243 37.876L322.083 39.424C321.615 38.596 321.003 37.84 320.247 37.192C318.951 36.076 316.899 34.96 313.983 34.96C308.079 34.96 302.571 40.108 302.571 46.66C302.571 51.844 306.387 55.84 311.895 55.84C314.379 55.84 316.467 54.976 317.907 54.076C318.735 53.536 319.491 52.96 320.175 52.276ZM330.755 58L335.543 35.32H327.623L328.163 32.8H346.703L346.163 35.32H338.243L333.455 58H330.755ZM349.252 55.48H356.812C360.088 55.48 362.86 52.96 362.86 49.36C362.86 46.876 360.808 44.68 357.928 44.68H351.556L349.252 55.48ZM346.048 58L351.376 32.8H354.076L352.096 42.16H358.288C362.428 42.16 365.56 45.22 365.56 49.36C365.56 54.184 361.384 58 356.596 58H346.048Z" fill="#31473A"/>
<path d="M2.22266 84V72H3.59766L8.34766 78L13.0977 72H14.4727V84H12.7227V75.125L8.34766 80.625L3.97266 75.125V84H2.22266ZM23.7324 84.25C20.3574 84.25 17.6074 81.5 17.6074 78C17.6074 74.5 20.3574 71.75 23.7324 71.75C27.1074 71.75 29.8574 74.5 29.8574 78C29.8574 81.5 27.1074 84.25 23.7324 84.25ZM23.7324 82.625C26.1074 82.625 28.1074 80.625 28.1074 78C28.1074 75.375 26.1074 73.375 23.7324 73.375C21.3574 73.375 19.3574 75.375 19.3574 78C19.3574 80.6 21.3574 82.625 23.7324 82.625ZM41.8594 80.625L43.1094 81.75C42.7344 82.225 42.2844 82.625 41.7844 83C40.9094 83.625 39.6844 84.25 38.1094 84.25C34.8344 84.25 32.1094 81.5 32.1094 78C32.1094 74.5 34.8344 71.75 38.1094 71.75C39.6844 71.75 40.8844 72.35 41.7094 72.95C42.1844 73.3 42.6094 73.7 42.9844 74.125L41.7344 75.375C41.4594 75 41.1594 74.675 40.8094 74.375C40.2094 73.875 39.2844 73.375 38.1094 73.375C35.8594 73.375 33.8594 75.375 33.8594 78C33.8594 80.625 35.8594 82.625 38.1094 82.625C39.2844 82.625 40.2094 82.125 40.8844 81.625C41.2594 81.325 41.5844 81 41.8594 80.625ZM45.8506 84V72H47.6006V78.375L53.6006 72H55.7256L51.1006 76.875L56.2256 84H54.2256L49.9756 78.125L47.6006 80.625V84H45.8506ZM63.4785 84.25C60.1035 84.25 57.3535 81.5 57.3535 78C57.3535 74.5 60.1035 71.75 63.4785 71.75C66.8535 71.75 69.6035 74.5 69.6035 78C69.6035 81.5 66.8535 84.25 63.4785 84.25ZM63.4785 82.625C65.8535 82.625 67.8535 80.625 67.8535 78C67.8535 75.375 65.8535 73.375 63.4785 73.375C61.1035 73.375 59.1035 75.375 59.1035 78C59.1035 80.6 61.1035 82.625 63.4785 82.625ZM72.7305 84V72H78.2305C80.5055 72 81.8555 73.35 81.8555 75.125C81.8555 76 81.4805 76.625 81.1055 77.025C80.8805 77.25 80.6305 77.45 80.3555 77.625C80.7305 77.75 81.0555 77.925 81.3555 78.175C81.8555 78.6 82.3555 79.325 82.3555 80.5C82.3555 82.625 80.9805 84 78.4805 84H72.7305ZM74.4805 76.875H78.2305C79.5055 76.875 80.1055 76.25 80.1055 75.25C80.1055 74.25 79.5055 73.625 78.2305 73.625H74.4805V76.875ZM74.4805 82.375H78.4805C79.8805 82.375 80.6055 81.65 80.6055 80.375C80.6055 79.1 79.8805 78.375 78.4805 78.375H74.4805V82.375ZM94.4717 80.625L95.7217 81.75C95.3467 82.225 94.8967 82.625 94.3967 83C93.5217 83.625 92.2967 84.25 90.7217 84.25C87.4467 84.25 84.7217 81.5 84.7217 78C84.7217 74.5 87.4467 71.75 90.7217 71.75C92.2967 71.75 93.4967 72.35 94.3217 72.95C94.7967 73.3 95.2217 73.7 95.5967 74.125L94.3467 75.375C94.0717 75 93.7717 74.675 93.4217 74.375C92.8217 73.875 91.8967 73.375 90.7217 73.375C88.4717 73.375 86.4717 75.375 86.4717 78C86.4717 80.625 88.4717 82.625 90.7217 82.625C91.8967 82.625 92.8217 82.125 93.4967 81.625C93.8717 81.325 94.1967 81 94.4717 80.625ZM98.4629 84V72H100.213V78.375L106.213 72H108.338L103.713 76.875L108.838 84H106.838L102.588 78.125L100.213 80.625V84H98.4629ZM118.091 84V82.375C117.841 82.725 117.516 83.05 117.141 83.325C116.466 83.8 115.516 84.25 114.216 84.25C111.716 84.25 109.966 82.5 109.966 80.75C109.966 78.75 111.191 77.5 113.466 77.125L118.091 76.375C118.091 74.6 116.866 73.375 115.091 73.375C114.016 73.375 113.191 73.825 112.616 74.25C112.291 74.525 111.991 74.8 111.716 75.125L110.591 74C110.916 73.575 111.316 73.2 111.766 72.875C112.541 72.3 113.616 71.75 115.091 71.75C117.841 71.75 119.841 73.75 119.841 76.375V84H118.091ZM118.091 78.625V77.875L113.966 78.625C112.466 78.9 111.716 79.625 111.716 80.75C111.716 81.75 112.591 82.625 114.216 82.625C116.491 82.625 118.091 81.025 118.091 78.625ZM122.829 84L125.579 79.625C125.104 79.475 124.704 79.25 124.329 78.95C123.704 78.425 123.079 77.5 123.079 76C123.079 73.75 124.829 72 127.454 72H132.579V84H130.829V80H127.329L124.829 84H122.829ZM127.454 78.375H130.829V73.625H127.454C125.829 73.625 124.829 74.6 124.829 76C124.829 77.4 125.829 78.375 127.454 78.375ZM141.822 84V72H143.572V78.375L149.572 72H151.697L147.072 76.875L152.197 84H150.197L145.947 78.125L143.572 80.625V84H141.822ZM159.45 84.25C156.075 84.25 153.325 81.5 153.325 78C153.325 74.5 156.075 71.75 159.45 71.75C162.825 71.75 165.575 74.5 165.575 78C165.575 81.5 162.825 84.25 159.45 84.25ZM159.45 82.625C161.825 82.625 163.825 80.625 163.825 78C163.825 75.375 161.825 73.375 159.45 73.375C157.075 73.375 155.075 75.375 155.075 78C155.075 80.6 157.075 82.625 159.45 82.625ZM166.458 84V82.25C166.533 82.3 166.633 82.35 166.758 82.375C166.958 82.45 167.183 82.5 167.458 82.5C168.833 82.5 169.708 81.6 169.708 75.5V72H178.458V84H176.708V73.625H171.458V75.5C171.458 82.75 169.958 84.25 167.708 84.25C167.383 84.25 167.083 84.2 166.833 84.125C166.708 84.1 166.583 84.05 166.458 84ZM180.447 84V82.25C180.522 82.3 180.622 82.35 180.747 82.375C180.947 82.45 181.172 82.5 181.447 82.5C182.822 82.5 183.697 81.6 183.697 75.5V72H192.447V84H190.697V73.625H185.447V75.5C185.447 82.75 183.947 84.25 181.697 84.25C181.372 84.25 181.072 84.2 180.822 84.125C180.697 84.1 180.572 84.05 180.447 84ZM205.437 80.625L206.562 81.75C206.212 82.225 205.787 82.625 205.287 83C204.412 83.625 203.187 84.25 201.562 84.25C198.287 84.25 195.562 81.5 195.562 78C195.562 74.5 198.312 71.75 201.437 71.75C204.712 71.75 207.187 74.25 207.187 77.75C207.187 78.025 207.137 78.225 207.112 78.4L207.062 78.65L197.312 78.625C197.437 80.75 199.287 82.625 201.562 82.625C202.837 82.625 203.762 82.125 204.437 81.625C204.812 81.325 205.162 81 205.437 80.625ZM197.312 77.125H205.437C205.162 75 203.562 73.375 201.437 73.375C199.287 73.375 197.587 75.125 197.312 77.125ZM210.304 84V72H218.304V73.625H212.054V84H210.304ZM220.558 84V72H222.308V81L229.558 72H231.058V84H229.308V75L222.058 84H220.558ZM234.06 84L236.81 79.625C236.335 79.475 235.935 79.25 235.56 78.95C234.935 78.425 234.31 77.5 234.31 76C234.31 73.75 236.06 72 238.685 72H243.81V84H242.06V80H238.56L236.06 84H234.06ZM238.685 78.375H242.06V73.625H238.685C237.06 73.625 236.06 74.6 236.06 76C236.06 77.4 237.06 78.375 238.685 78.375ZM260.303 84V82.375C260.053 82.725 259.728 83.05 259.353 83.325C258.678 83.8 257.728 84.25 256.428 84.25C253.928 84.25 252.178 82.5 252.178 80.75C252.178 78.75 253.403 77.5 255.678 77.125L260.303 76.375C260.303 74.6 259.078 73.375 257.303 73.375C256.228 73.375 255.403 73.825 254.828 74.25C254.503 74.525 254.203 74.8 253.928 75.125L252.803 74C253.128 73.575 253.528 73.2 253.978 72.875C254.753 72.3 255.828 71.75 257.303 71.75C260.053 71.75 262.053 73.75 262.053 76.375V84H260.303ZM260.303 78.625V77.875L256.178 78.625C254.678 78.9 253.928 79.625 253.928 80.75C253.928 81.75 254.803 82.625 256.428 82.625C258.703 82.625 260.303 81.025 260.303 78.625ZM264.041 87V82.375H264.916C265.316 81.95 265.666 81.4 265.966 80.725C266.491 79.6 267.041 77.9 267.041 75.5V72H275.291V82.375H277.166V87H275.416V84H265.791V87H264.041ZM266.791 82.375H273.541V73.625H268.791V75.5C268.791 77.8 268.291 79.5 267.791 80.675C267.491 81.35 267.166 81.9 266.791 82.375ZM279.908 84V72H285.408C287.683 72 289.033 73.35 289.033 75.125C289.033 76 288.658 76.625 288.283 77.025C288.058 77.25 287.808 77.45 287.533 77.625C287.908 77.75 288.233 77.925 288.533 78.175C289.033 78.6 289.533 79.325 289.533 80.5C289.533 82.625 288.158 84 285.658 84H279.908ZM281.658 76.875H285.408C286.683 76.875 287.283 76.25 287.283 75.25C287.283 74.25 286.683 73.625 285.408 73.625H281.658V76.875ZM281.658 82.375H285.658C287.058 82.375 287.783 81.65 287.783 80.375C287.783 79.1 287.058 78.375 285.658 78.375H281.658V82.375ZM298.024 84.25C294.649 84.25 291.899 81.5 291.899 78C291.899 74.5 294.649 71.75 298.024 71.75C301.399 71.75 304.149 74.5 304.149 78C304.149 81.5 301.399 84.25 298.024 84.25ZM298.024 82.625C300.399 82.625 302.399 80.625 302.399 78C302.399 75.375 300.399 73.375 298.024 73.375C295.649 73.375 293.649 75.375 293.649 78C293.649 80.6 295.649 82.625 298.024 82.625ZM307.276 84V72H309.026V78.375L315.026 72H317.151L312.526 76.875L317.651 84H315.651L311.401 78.125L309.026 80.625V84H307.276ZM326.904 84V82.375C326.654 82.725 326.329 83.05 325.954 83.325C325.279 83.8 324.329 84.25 323.029 84.25C320.529 84.25 318.779 82.5 318.779 80.75C318.779 78.75 320.004 77.5 322.279 77.125L326.904 76.375C326.904 74.6 325.679 73.375 323.904 73.375C322.829 73.375 322.004 73.825 321.429 74.25C321.104 74.525 320.804 74.8 320.529 75.125L319.404 74C319.729 73.575 320.129 73.2 320.579 72.875C321.354 72.3 322.429 71.75 323.904 71.75C326.654 71.75 328.654 73.75 328.654 76.375V84H326.904ZM326.904 78.625V77.875L322.779 78.625C321.279 78.9 320.529 79.625 320.529 80.75C320.529 81.75 321.404 82.625 323.029 82.625C325.304 82.625 326.904 81.025 326.904 78.625ZM335.148 84V73.625H330.898V72H341.148V73.625H336.898V84H335.148ZM348.659 84.25C345.284 84.25 342.534 81.5 342.534 78C342.534 74.5 345.284 71.75 348.659 71.75C352.034 71.75 354.784 74.5 354.784 78C354.784 81.5 352.034 84.25 348.659 84.25ZM348.659 82.625C351.034 82.625 353.034 80.625 353.034 78C353.034 75.375 351.034 73.375 348.659 73.375C346.284 73.375 344.284 75.375 344.284 78C344.284 80.6 346.284 82.625 348.659 82.625ZM357.911 84V72H363.411C365.686 72 367.036 73.35 367.036 75.125C367.036 76 366.661 76.625 366.286 77.025C366.061 77.25 365.811 77.45 365.536 77.625C365.911 77.75 366.236 77.925 366.536 78.175C367.036 78.6 367.536 79.325 367.536 80.5C367.536 82.625 366.161 84 363.661 84H357.911ZM359.661 76.875H363.411C364.686 76.875 365.286 76.25 365.286 75.25C365.286 74.25 364.686 73.625 363.411 73.625H359.661V76.875ZM359.661 82.375H363.661C365.061 82.375 365.786 81.65 365.786 80.375C365.786 79.1 365.061 78.375 363.661 78.375H359.661V82.375Z" fill="#47313E"/>
<path d="M26.9471 0.0858913C25.1536 0.571867 23.823 2.07608 23.4527 4.0547C23.3486 4.57539 23.3486 4.82995 23.4527 5.04979C23.58 5.33906 23.6031 5.33906 24.9916 5.33906H26.3917L26.3107 6.75071C26.2413 8.16235 26.1603 8.81032 26.0677 8.81032C26.0446 8.81032 25.7785 8.63676 25.4776 8.41691C24.7139 7.88465 23.9387 7.50281 22.7816 7.12097C21.8675 6.82013 21.6592 6.79699 19.9467 6.79699C18.1417 6.78542 18.0607 6.79699 16.973 7.17883C15.6655 7.63009 14.3812 8.38219 13.2472 9.36572C11.6389 10.7658 10.2966 11.3443 8.42216 11.4369C7.45021 11.4948 7.16094 11.46 6.2237 11.1939C5.62202 11.0319 4.74263 10.6964 4.26822 10.4534C3.5624 10.1063 3.41198 9.97898 3.44669 9.79384C3.66654 8.54419 3.48141 7.93093 2.76401 7.44496C2.42846 7.21354 2.24332 7.17883 1.72263 7.21354C0.947386 7.27139 0.542406 7.52595 0.218422 8.18549C-0.0708494 8.76404 -0.0708494 9.07645 0.206851 9.6897C0.472981 10.2798 1.09781 10.6848 1.79206 10.7079C2.15076 10.7311 2.44003 10.8352 2.8103 11.1014C3.81696 11.8303 5.84186 12.6287 6.65182 12.6287C7.28822 12.6287 7.27665 12.5709 7.27665 15.2669V17.7777L1.93091 29.337L2.00033 30.066C2.16233 31.6859 3.03014 33.1554 4.37236 34.1158C6.80224 35.8746 9.83381 35.6663 12.0323 33.6067C12.8769 32.8083 13.4208 31.9058 13.6985 30.8528C14.034 29.5453 14.0919 29.7073 11.2107 23.459L8.54944 17.6852V12.6287H8.86186C10.0652 12.6287 11.9048 11.0782 13.6288 9.79384C16.5563 7.58381 19.537 6.96106 22.1288 7.58589C23.8066 7.99087 26.0214 9.96741 26.0214 10.5807C26.0214 10.9625 25.5586 26.569 25.4776 27.4252L23.4527 49.6555H20.9187C19.0211 49.6555 18.2805 49.7018 17.9913 49.8175C17.4243 50.0605 16.8342 50.6274 16.5912 51.1828C16.4639 51.4605 16.3019 51.7267 16.2209 51.7729C16.1399 51.8192 16.0127 51.9697 15.9432 52.0969C15.7928 52.3862 16.0821 52.8953 16.4061 52.8953C16.7995 52.8953 17.2276 53.3466 17.2276 53.7516C17.2276 54.388 16.9846 54.5847 16.1399 54.6657C14.5316 54.8161 13.5943 55.6145 13.3514 57.0261C13.2935 57.4195 13.3166 57.5468 13.5133 57.7435L13.7563 57.9865H28.2199C42.5331 57.9865 42.6835 57.9865 42.9149 57.7551C43.1926 57.4774 43.1926 57.3848 42.9728 56.6211C42.6256 55.4641 41.7231 54.8045 40.323 54.6657C39.4552 54.5847 39.2122 54.388 39.2122 53.7516C39.2122 53.3466 39.6403 52.8953 40.0106 52.8953C40.4735 52.8953 40.6702 52.1201 40.2767 51.8308C40.1726 51.7498 39.9759 51.4605 39.8602 51.1828C39.6056 50.6274 39.0155 50.0605 38.4486 49.8175C38.1593 49.7018 37.4187 49.6555 35.5211 49.6555H32.9871L31 27.4252C30.9074 26.5111 30.4184 10.9741 30.4184 10.5807C30.4184 9.96741 32.5744 8.0293 34.5001 7.49993C36.4439 6.96555 37.8837 7.18374 39.7561 7.93107C41.291 8.54375 41.0099 8.32216 43.0001 9.99993C43.3819 10.3239 44.9825 11.6513 45.4337 11.8712C46.29 12.2877 47.4331 12.4999 48.0001 12.4999L47.8904 12.6287V17.7083L45.2175 23.4706L42.5562 29.2329L42.6141 30.0081C42.9033 33.3174 46.0275 35.7126 49.4177 35.215C52.1369 34.8216 54.1734 32.681 54.4395 29.9387L54.4973 29.2329L52.7501 25.3567C51.7898 23.2276 50.5864 20.6242 50.0773 19.5828L49.1632 17.6852V12.6634L50.1698 12.4667C51.4079 12.2237 52.4609 11.7956 53.4328 11.1361C53.9766 10.7658 54.2891 10.6269 54.6478 10.6154C56.0247 10.5575 56.9157 8.94917 56.1288 7.89622C55.7007 7.30611 55.18 7.05155 54.5321 7.09783C53.2245 7.20197 52.5766 8.32434 53.0394 9.6897C53.1088 9.90955 52.9931 10.0021 52.0906 10.465C50.6558 11.2055 49.9153 11.4022 48.5268 11.3906C46.4209 11.3906 44.8935 10.7889 43.262 9.31943C42.0702 8.24334 41.0173 7.60695 39.7561 7.17883C37.9163 6.56557 35.9608 6.47301 34.1326 6.90113C33.2301 7.12098 31.6333 7.84994 30.8696 8.39377L30.3142 8.79875L30.2564 8.31277C30.2217 8.04664 30.1638 7.2714 30.1175 6.57714L30.0481 5.33906H31.1936C32.7673 5.33906 32.8945 5.2465 32.8251 4.1357C32.64 1.31241 29.6289 -0.414135 26.9471 0.0858913ZM29.215 1.41654C30.1754 1.6711 31.263 2.81662 31.5176 3.85799L31.5986 4.18198L28.2315 4.69573C26.3454 4.69573 24.7487 4.13569 24.7487 4.08941C24.7487 3.75385 25.1652 2.8629 25.5123 2.45792C26.4611 1.35869 27.6529 1.02313 29.215 1.41654ZM28.8563 5.47791C28.8794 5.55891 28.9257 6.0796 28.9489 6.635L29.0067 7.65323L28.2315 8.11607L27.5257 7.65323V6.75071C27.5257 5.39692 27.5604 5.33906 28.2315 5.33906C28.5902 5.33906 28.8216 5.39692 28.8563 5.47791ZM2.18547 8.5789C2.4516 8.84503 2.46317 8.96074 2.30118 9.28472C2.16233 9.53928 1.6185 9.58556 1.39865 9.36572C1.20195 9.16901 1.22509 8.74089 1.44493 8.53261C1.68792 8.28963 1.90777 8.3012 2.18547 8.5789ZM54.9602 8.46319C55.2147 8.60204 55.261 9.14587 55.0412 9.36572C54.8908 9.51614 54.4973 9.55085 54.3006 9.412C54.0229 9.23844 53.9998 8.83346 54.2428 8.59047C54.5205 8.31277 54.6362 8.3012 54.9602 8.46319ZM29.0762 9.00702C29.0993 9.12273 29.1456 9.65499 29.1687 10.1988L29.2034 11.1823L28.2199 11.7725L27.248 11.1823L27.2827 10.3724C27.2942 9.92113 27.329 9.38886 27.3752 9.18059L27.4331 8.81032L28.2315 8.11607C28.891 8.11607 29.0762 9.00702 29.0762 9.00702ZM30.4994 30.4478C31.1473 40.3409 31.6796 48.7182 31.6796 49.0422L31.6912 49.6555H28.2199C24.9916 49.6555 24.7487 49.6439 24.7487 49.4472C24.7371 49.0422 27.0744 13.1378 27.1322 12.7676L27.1901 12.3857L28.2199 11.7725L29.3191 12.4551L30.4994 30.4478ZM10.6288 24.0859C11.7049 26.4348 12.2521 28.7238 12.2521 28.7585C12.2521 28.7932 10.3082 29.7151 7.91305 29.7151C4.4765 29.7151 3.5624 28.7932 3.60869 28.6775C3.6434 28.6081 3.96017 26.6199 5.12883 24.0859L7.90147 19.3282L8.10975 19.7332C8.22546 19.9531 9.54117 21.7254 10.6288 24.0859ZM51.1288 23.5859C52.2165 25.9463 52.8658 28.7354 52.8658 28.7701C52.8658 28.8048 51.024 29.5859 48.6288 29.5859C45.1923 29.5859 44.1761 28.7932 44.2224 28.6775C44.2456 28.6081 44.9602 26.1199 46.1288 23.5859L48.5152 19.3282C48.6193 19.5365 50.0412 21.2139 51.1288 23.5859ZM12.4488 30.5057C12.2521 31.6975 11.2455 33.0513 10.0768 33.6645C8.69986 34.3935 7.27665 34.4051 5.80715 33.6877C4.63849 33.1091 3.57397 31.7206 3.37727 30.5057L3.30784 30.1007H12.5182L12.4488 30.5057ZM53.0626 30.5057C52.9468 31.1884 52.4493 32.1372 51.8939 32.7389C50.1351 34.6133 47.2424 34.6943 45.3448 32.924C44.7315 32.3455 44.1183 31.2578 43.991 30.5288L43.9216 30.1007H53.132L53.0626 30.5057ZM38.1708 51.1018C38.356 51.1944 38.5643 51.3795 38.6337 51.5068C38.761 51.7382 38.68 52.8953 28.1968 52.8953C18.6624 52.8953 17.6904 51.7267 17.783 51.5531C17.8408 51.4605 18.0375 51.2754 18.2227 51.1481C18.5467 50.9398 18.8027 49.9865 28.1288 49.9865C36.5061 49.9865 37.8816 50.9514 38.1708 51.1018ZM38.0436 53.4391C37.9973 53.6821 37.9973 54.0755 38.0436 54.307L38.1477 54.7467L28.1968 55.2405L18.2921 54.7467L18.4078 54.3301C18.4772 54.0524 18.4772 53.7516 18.4078 53.4623L18.2921 53.011L28.1968 52.8953L38.1477 53.011L38.0436 53.4391ZM41.1793 56.193C41.3644 56.2856 41.5727 56.4707 41.6421 56.598C41.7694 56.8294 41.7115 57.4865 28.2199 57.4865C15.0407 57.4865 14.682 56.8294 14.8093 56.6096C15.2027 55.9963 14.5084 55.252 28.1968 55.2405C39.2585 55.2405 40.89 56.0426 41.1793 56.193Z" fill="#47313E"/>
<path d="M3 29.5L8.5 30L13.5 29.5L11.5 33.5L8 35L4 33L3 29.5Z" fill="#47313E"/>
<path d="M43.5 30H48H53.5L51.5 34L48 35L45 34L43 31.5L43.5 30Z" fill="#47313E"/>
<path d="M25 1.5L27.5 0.5L31 1L32 4.5L27 5L24.5 4V3L25 1.5Z" fill="#47313E"/>
<path d="M18 52.9999C24.4478 52.9182 29.1642 52.9185 39 52.9999V54.9999C30.0844 55.286 25.4374 55.3111 18 54.9999V52.9999Z" fill="#47313E"/>
</svg>
