<svg width="76" height="94" viewBox="0 0 76 94" fill="none" xmlns="http://www.w3.org/2000/svg">
<path d="M32.8212 67.74H3.11622C3.89222 53.515 15.6372 42.182 29.9642 42.182C34.0382 42.182 37.9512 43.076 41.5962 44.838C42.3432 45.198 43.2382 44.887 43.5992 44.141C43.9592 43.395 43.6472 42.498 42.9012 42.137C38.8462 40.176 34.4932 39.182 29.9632 39.182C13.4832 39.182 0.0742188 52.665 0.0742188 69.24C0.0742188 70.068 0.745219 70.74 1.57422 70.74H32.8202C33.6492 70.74 34.3202 70.068 34.3202 69.24C34.3202 68.412 33.6502 67.74 32.8212 67.74Z" fill="white"/>
<path d="M30.5646 35.759C40.2216 35.759 48.0776 27.904 48.0776 18.248C48.0776 8.59401 40.2216 0.739014 30.5646 0.739014C20.9116 0.739014 13.0586 8.59301 13.0586 18.248C13.0586 27.904 20.9116 35.759 30.5646 35.759ZM30.5646 3.74001C38.5666 3.74001 45.0776 10.249 45.0776 18.249C45.0776 26.25 38.5666 32.76 30.5646 32.76C22.5656 32.76 16.0586 26.25 16.0586 18.249C16.0586 10.248 22.5656 3.74001 30.5646 3.74001Z" fill="white"/>
<path d="M73.8203 49.74H39.8203C38.9913 49.74 38.3203 50.412 38.3203 51.24V83.24C38.3203 84.068 38.9913 84.74 39.8203 84.74H50.3203V91.847C50.3203 92.467 50.7013 93.023 51.2803 93.246C51.4563 93.313 51.6383 93.347 51.8203 93.347C52.2363 93.347 52.6423 93.174 52.9323 92.855L62.4583 84.781C62.8083 84.781 73.8213 84.74 73.8213 84.74C74.6503 84.74 75.3213 84.068 75.3213 83.24V51.24C75.3203 50.411 74.6493 49.74 73.8203 49.74ZM72.3203 81.74H62.0853C61.8223 81.74 61.3613 81.75 60.7473 82.243L53.3203 87.961V83.24C53.3203 82.412 52.6493 81.74 51.8203 81.74C51.5523 81.74 41.3193 81.74 41.3193 81.74V52.74H72.3193L72.3203 81.74Z" fill="white"/>
<path d="M53.3213 63.211C54.1503 63.211 54.8213 62.539 54.8213 61.711C54.8213 60.407 55.8823 59.347 57.1853 59.347C58.4883 59.347 59.5503 60.408 59.5503 61.711C59.5503 62.978 58.5473 64.016 57.2923 64.073C57.2563 64.075 56.8163 64.075 56.7803 64.075C56.0793 64.075 55.4173 64.444 55.3303 65.208C55.3303 65.609 55.3203 69.239 55.3203 69.239C55.3203 70.067 55.9913 70.739 56.8203 70.739C57.6493 70.739 58.3203 70.067 58.3203 69.239V66.948C60.7333 66.425 62.5493 64.278 62.5493 61.71C62.5493 58.752 60.1423 56.346 57.1843 56.346C54.2263 56.346 51.8203 58.752 51.8203 61.71C51.8213 62.539 52.4933 63.211 53.3213 63.211Z" fill="white"/>
<path d="M56.8203 77.74C58.201 77.74 59.3203 76.6207 59.3203 75.24C59.3203 73.8593 58.201 72.74 56.8203 72.74C55.4396 72.74 54.3203 73.8593 54.3203 75.24C54.3203 76.6207 55.4396 77.74 56.8203 77.74Z" fill="white"/>
</svg>
