<svg width="96" height="89" viewBox="0 0 96 89" fill="none" xmlns="http://www.w3.org/2000/svg">
<path d="M75.1466 85.8034H3.23499C4.07385 66.9381 19.6828 51.8472 38.7484 51.8472C44.6684 51.8472 50.5287 53.3309 55.6962 56.1374C56.4711 56.5584 57.4421 56.2728 57.8642 55.4947C58.2863 54.7187 57.9985 53.7477 57.2214 53.3266C51.5861 50.2665 45.1982 48.6484 38.7474 48.6484C17.3826 48.6484 0 66.0332 0 87.4011C0 88.2837 0.716281 89 1.59884 89H75.1445C76.027 89 76.7433 88.2837 76.7433 87.4011C76.7433 86.5186 76.0302 85.8034 75.1466 85.8034Z" fill="white"/>
<path d="M38.1021 44.5767C50.395 44.5767 60.3963 34.5776 60.3963 22.2878C60.3963 9.99809 50.395 0 38.1021 0C25.8123 0 15.8142 9.99809 15.8142 22.2878C15.8142 34.5776 25.8112 44.5767 38.1021 44.5767ZM38.1021 3.19662C48.632 3.19662 57.1986 11.76 57.1986 22.2868C57.1986 32.8135 48.632 41.378 38.1021 41.378C27.5753 41.378 19.0119 32.8135 19.0119 22.2868C19.0119 11.76 27.5753 3.19662 38.1021 3.19662Z" fill="white"/>
<path d="M89.6089 60.5279C89.594 60.5279 89.5801 60.5279 89.5641 60.5289C89.5108 60.5247 85.0096 60.595 82.8383 55.4926C82.2553 54.1218 82.04 52.5827 81.9622 51.7492C83.3446 50.1301 84.0982 48.0963 84.0982 45.9454C84.0982 41.0081 80.0809 36.9929 75.1447 36.9929C70.2086 36.9929 66.1923 41.0092 66.1923 45.9454C66.1923 48.0665 66.9256 50.0768 68.274 51.6852C68.1556 52.7244 67.8721 54.432 67.337 55.6375C65.0827 60.7229 60.9673 60.5321 60.8042 60.5332C60.7626 60.53 60.721 60.5279 60.6795 60.5279C57.2707 60.5279 54.4962 63.3024 54.4962 66.7122V71.1868C54.4962 72.0694 55.2125 72.7856 56.0951 72.7856H56.5523L56.5832 79.6916C56.5875 80.5709 57.3016 81.2829 58.1821 81.2829H92.2736C93.1562 81.2829 93.8725 80.5667 93.8725 79.6841V72.7856H94.1954C95.078 72.7856 95.7943 72.0694 95.7943 71.1868V66.7122C95.7943 63.3024 93.0187 60.5279 89.6089 60.5279ZM57.6928 66.7122C57.6928 65.0782 59.0113 63.7469 60.64 63.7255C61.4533 63.7692 67.2262 63.7756 70.2586 56.9347C71.3022 54.5855 71.5164 51.3676 71.5249 51.2311C71.5537 50.7749 71.3853 50.3272 71.0634 50.0032C69.9826 48.916 69.3889 47.476 69.3889 45.9454C69.3889 42.7711 71.9705 40.1906 75.1436 40.1906C78.3168 40.1906 80.8995 42.7722 80.8995 45.9454C80.8995 47.4909 80.294 48.9427 79.194 50.0331C78.8817 50.3422 78.7112 50.7664 78.7208 51.2066C78.724 51.326 78.8018 54.1751 79.8965 56.7439C82.8341 63.6488 89.0472 63.7085 89.6195 63.7255C91.261 63.7319 92.5955 65.0696 92.5955 66.7122V69.588H92.5721C92.4751 69.5698 92.3749 69.5581 92.2726 69.5581C92.1702 69.5581 92.07 69.5698 91.973 69.588H57.6928V66.7122ZM90.6748 78.0853H59.7735L59.75 72.7856H90.6748V78.0853Z" fill="white"/>
</svg>
