<svg width="72" height="91" viewBox="0 0 72 91" fill="none" xmlns="http://www.w3.org/2000/svg">
<path d="M70.5011 14.8549L36.3011 0.124791C36.1122 0.0425094 35.9078 0 35.7011 0C35.4945 0 35.2901 0.0425094 35.1011 0.124791L0.901133 14.8549C0.624777 14.9702 0.390682 15.1654 0.229933 15.4144C0.0691842 15.6635 -0.0106141 15.9547 0.00113344 16.2493L1.56113 59.821C1.97344 64.9052 3.7686 69.7873 6.75905 73.9574C9.74949 78.1274 13.8255 81.4323 18.5611 83.5266L35.1011 90.8622C35.2948 90.9529 35.5066 91 35.7211 91C35.9357 91 36.1475 90.9529 36.3411 90.8622L52.8811 83.5266C57.6266 81.4267 61.7091 78.1113 64.7003 73.9281C67.6914 69.745 69.481 64.8485 69.8811 59.7522L71.4411 16.2493C71.4497 15.9501 71.3641 15.6556 71.1958 15.4061C71.0276 15.1565 70.785 14.964 70.5011 14.8549ZM66.8511 59.5853C66.4847 64.1426 64.879 68.5196 62.2018 72.2594C59.5245 75.9992 55.8739 78.9645 51.6311 80.8457L35.7011 87.9064L19.7711 80.8457C15.547 78.9728 11.9095 76.025 9.2353 72.3077C6.56107 68.5904 4.94731 64.2387 4.56113 59.7031L3.03113 17.1528L35.7011 3.10027L68.3711 17.1528L66.8511 59.5853Z" fill="white"/>
<path d="M25.1992 26.7862V32.2069H14.6992C14.3014 32.2069 13.9199 32.362 13.6386 32.6383C13.3573 32.9145 13.1992 33.2892 13.1992 33.6799V62.1581C13.1992 62.5487 13.3573 62.9234 13.6386 63.1996C13.9199 63.4759 14.3014 63.6311 14.6992 63.6311H56.6992C57.097 63.6311 57.4786 63.4759 57.7599 63.1996C58.0412 62.9234 58.1992 62.5487 58.1992 62.1581V33.6799C58.1992 33.2892 58.0412 32.9145 57.7599 32.6383C57.4786 32.362 57.097 32.2069 56.6992 32.2069H46.1992V26.4425C46.1977 25.0373 45.9042 23.6471 45.3368 22.3571C44.7694 21.0671 43.94 19.9043 42.8992 18.9399C41.8579 17.9678 40.6228 17.2181 39.2717 16.7381C37.9206 16.2581 36.4829 16.0582 35.0492 16.151C32.3386 16.3629 29.8118 17.5801 27.9823 19.5555C26.1527 21.5309 25.1576 24.1163 25.1992 26.7862ZM55.1992 60.685H16.1992V35.1529H55.1992V60.685ZM40.8392 21.0807C41.5875 21.7666 42.1833 22.5969 42.5894 23.5196C42.9956 24.4422 43.2032 25.4373 43.1992 26.4425V32.2069H28.1992V26.7862C28.1557 24.8708 28.8542 23.0106 30.1536 21.5815C31.453 20.1524 33.2563 19.2609 35.1992 19.0872C36.2285 19.0191 37.2611 19.161 38.2318 19.5041C39.2025 19.8472 40.0903 20.384 40.8392 21.0807Z" fill="white"/>
<path d="M35.7001 40.1123C34.5214 40.1329 33.388 40.5618 32.5001 41.3234C31.6121 42.0849 31.0268 43.13 30.8473 44.2742C30.6679 45.4184 30.9059 46.588 31.5194 47.5766C32.1329 48.5652 33.0823 49.3091 34.2001 49.6771V54.3023C34.2001 54.693 34.3581 55.0676 34.6394 55.3439C34.9207 55.6201 35.3023 55.7753 35.7001 55.7753C36.0979 55.7753 36.4794 55.6201 36.7607 55.3439C37.042 55.0676 37.2001 54.693 37.2001 54.3023V49.6771C38.3179 49.3091 39.2673 48.5652 39.8808 47.5766C40.4942 46.588 40.7323 45.4184 40.5528 44.2742C40.3734 43.13 39.788 42.0849 38.9001 41.3234C38.0122 40.5618 36.8788 40.1329 35.7001 40.1123ZM35.7001 46.9864C35.3045 46.9864 34.9178 46.8712 34.5889 46.6554C34.26 46.4395 34.0037 46.1328 33.8523 45.7739C33.7009 45.4151 33.6613 45.0202 33.7385 44.6392C33.8157 44.2582 34.0062 43.9082 34.2859 43.6336C34.5656 43.3589 34.9219 43.1718 35.3099 43.0961C35.6979 43.0203 36.1 43.0592 36.4654 43.2078C36.8309 43.3565 37.1433 43.6082 37.363 43.9312C37.5828 44.2542 37.7001 44.6339 37.7001 45.0223C37.7001 45.5432 37.4894 46.0428 37.1143 46.4111C36.7392 46.7794 36.2305 46.9864 35.7001 46.9864Z" fill="white"/>
</svg>
