<svg width="67" height="79" viewBox="0 0 67 79" fill="none" xmlns="http://www.w3.org/2000/svg">
<path d="M65.384 75.748H59.629C59.152 71.939 57.509 61.053 53.695 54.544C49.86 47.993 43.7 42.019 41.055 39.605C43.682 37.114 49.855 30.926 53.695 24.366C57.546 17.793 59.185 6.752 59.644 3.048H65.385C66.213 3.048 66.885 2.376 66.885 1.548C66.885 0.719004 66.213 0.0480042 65.385 0.0480042H1.57898C0.750979 0.0480042 0.0789795 0.719004 0.0789795 1.548C0.0789795 2.376 0.750979 3.048 1.57898 3.048H7.32398C7.78298 6.753 9.41798 17.794 13.268 24.366C17.115 30.936 23.04 37.135 25.527 39.606C23.023 42.001 17.11 47.985 13.269 54.544C9.45498 61.053 7.81598 71.94 7.33898 75.749H1.57998C0.751979 75.749 0.0799789 76.421 0.0799789 77.249C0.0799789 78.078 0.751979 78.749 1.57998 78.749H8.67598H8.67798H8.67898H65.385C66.213 78.749 66.885 78.078 66.885 77.249C66.884 76.42 66.212 75.748 65.384 75.748ZM15.856 56.06C20.49 48.149 28.621 40.818 28.703 40.745C29.016 40.464 29.197 40.065 29.202 39.644C29.207 39.223 29.034 38.82 28.727 38.533C28.645 38.456 20.505 30.79 15.856 22.849C12.445 17.026 10.854 6.885 10.352 3.047H56.616C56.114 6.883 54.522 17.02 51.106 22.849C46.475 30.762 37.911 38.43 37.825 38.506C37.501 38.795 37.317 39.21 37.322 39.643C37.327 40.077 37.519 40.488 37.85 40.769C37.935 40.842 46.484 48.165 51.107 56.059C54.485 61.826 56.081 71.826 56.6 75.747H10.366C10.883 71.829 12.474 61.833 15.856 56.06Z" fill="white"/>
<path d="M34.982 57.531V34.499L48.709 19.106C49.103 18.665 49.2 18.034 48.959 17.494C48.717 16.954 48.181 16.607 47.59 16.607H19.375C18.784 16.607 18.248 16.954 18.006 17.494C17.765 18.034 17.862 18.664 18.256 19.106L31.983 34.499V57.531L18.173 68.298C17.667 68.692 17.468 69.362 17.676 69.968C17.885 70.573 18.454 70.98 19.095 70.98H47.87C48.511 70.98 49.08 70.573 49.289 69.968C49.497 69.362 49.298 68.691 48.792 68.298L34.982 57.531ZM44.241 19.608L33.481 31.674L22.721 19.608H44.241ZM23.457 67.981L33.481 60.166L43.505 67.981H23.457Z" fill="white"/>
</svg>
