<svg width="98" height="91" viewBox="0 0 98 91" fill="none" xmlns="http://www.w3.org/2000/svg">
<path d="M36.6376 42.3336C35.4482 43.1161 34.0996 44.004 32.6135 45.1719C32.1672 45.4961 28.2017 48.4242 26.499 51.2696C24.7556 54.1773 24.192 58.9169 24.1681 59.1179C24.1094 59.6265 24.271 60.1362 24.6108 60.5179C24.9518 60.8996 25.4388 61.1186 25.951 61.1186H44.1712C45.1631 61.1186 45.966 60.3157 45.966 59.3237C45.966 58.3318 45.1631 57.5289 44.1712 57.5289H28.0725C28.3764 56.0786 28.873 54.2886 29.5778 53.1135C30.7014 51.2349 33.6736 48.8394 34.7757 48.0353C36.1972 46.9189 37.4787 46.0765 38.6095 45.3322C41.6715 43.3172 44.091 41.7257 44.091 37.5796C44.091 32.1795 39.7008 27.7856 34.303 27.7856C28.8993 27.7856 24.5043 32.1795 24.5043 37.5796C24.5043 38.5716 25.3072 39.3745 26.2992 39.3745C27.2911 39.3745 28.094 38.5716 28.094 37.5796C28.094 34.1586 30.8796 31.3754 34.303 31.3754C37.7205 31.3754 40.5013 34.1586 40.5013 37.5796C40.5013 39.6963 39.6362 40.3604 36.6376 42.3336Z" fill="white"/>
<path d="M62.0214 61.2885C63.0133 61.2885 63.8162 60.4856 63.8162 59.4936V52.9412H67.759C68.7509 52.9412 69.5538 52.1383 69.5538 51.1463C69.5538 50.1544 68.7509 49.3515 67.759 49.3515H63.8162V29.7504C63.8162 28.9547 63.2921 28.2547 62.5287 28.0297C61.7677 27.8036 60.9457 28.1087 60.5137 28.7764L46.6813 50.1723C46.3247 50.7239 46.2984 51.4275 46.6119 52.0055C46.9266 52.5822 47.5309 52.9424 48.1878 52.9424H60.2253V59.4948C60.2265 60.4856 61.0306 61.2885 62.0214 61.2885ZM51.4867 49.3515L60.2265 35.8326V49.3515H51.4867Z" fill="white"/>
<path d="M96.7777 37.3355C96.031 36.6858 94.8967 36.7623 94.2458 37.5102L90.8056 41.4613C88.7583 18.2585 69.2278 0 45.5021 0C20.4124 0 0 20.4076 0 45.4913C0 70.5775 20.4124 90.9875 45.5021 90.9875C61.5709 90.9875 76.1356 82.767 84.4602 68.9992C84.9735 68.1521 84.7007 67.0476 83.8523 66.5343C83.0039 66.0234 81.8995 66.2938 81.3874 67.1422C73.7185 79.8258 60.3037 87.3977 45.5021 87.3977C22.3915 87.3977 3.58972 68.5984 3.58972 45.4913C3.58972 22.3867 22.3915 3.58972 45.5021 3.58972C67.3886 3.58972 85.3983 20.4602 87.2374 41.8777L82.8651 38.081C82.1185 37.4312 80.9841 37.5114 80.3332 38.2593C79.6834 39.0071 79.7636 40.1415 80.5115 40.7912L88.063 47.3472C88.4029 47.6428 88.8217 47.7864 89.2393 47.7864C89.7394 47.7864 90.2384 47.5782 90.5938 47.1701L96.9524 39.8663C97.6045 39.1196 97.5256 37.9864 96.7777 37.3355Z" fill="white"/>
</svg>
